<?xml version="1.0" standalone="no"?>
<!DOCTYPE svg PUBLIC "-//W3C//DTD SVG 20010904//EN"
 "http://www.w3.org/TR/2001/REC-SVG-20010904/DTD/svg10.dtd">
<svg version="1.0" xmlns="http://www.w3.org/2000/svg"
 width="700.000000pt" height="700.000000pt" viewBox="0 0 700.000000 700.000000"
 preserveAspectRatio="xMidYMid meet">
<metadata>
Created by potrace 1.11, written by Peter Selinger 2001-2013
</metadata>
<g transform="translate(0.000000,700.000000) scale(0.100000,-0.100000)"
fill="#000000" stroke="none">
<path d="M3418 6833 c-196 -288 -392 -589 -853 -1308 -183 -284 -339 -526
-385 -595 -226 -341 -425 -637 -455 -680 -21 -30 -86 -122 -144 -205 -58 -82
-109 -154 -113 -160 -5 -5 -33 -44 -64 -85 -30 -41 -61 -82 -67 -90 -7 -9 -25
-33 -42 -55 -42 -57 -36 -49 -137 -175 -50 -63 -105 -131 -122 -151 -17 -20
-53 -62 -81 -94 -98 -115 -211 -233 -338 -353 -37 -35 -67 -65 -67 -68 0 -2
197 -2 437 -1 l437 3 74 80 c325 348 629 769 984 1364 71 118 133 222 138 230
14 23 99 170 128 220 14 25 42 74 64 109 21 34 38 64 38 66 0 5 285 486 322
543 10 15 21 34 26 42 22 43 273 431 305 473 l23 30 41 -64 c22 -35 81 -127
130 -204 128 -199 259 -415 399 -656 141 -244 216 -374 238 -414 136 -241 391
-658 536 -875 137 -206 355 -503 415 -566 5 -6 28 -33 50 -60 62 -75 176 -202
251 -279 l32 -32 436 0 c240 0 436 2 436 4 0 2 -23 25 -52 51 -144 130 -386
393 -513 556 -16 21 -35 44 -40 50 -53 56 -303 393 -556 751 -23 32 -146 215
-273 405 -209 312 -267 399 -448 680 -30 47 -82 126 -114 175 -32 50 -61 95
-64 100 -3 6 -31 51 -64 100 -32 50 -93 143 -135 208 -154 237 -420 642 -428
652 -4 6 -24 35 -43 65 -19 30 -38 60 -42 65 -14 18 -75 108 -135 197 -32 48
-61 88 -65 88 -4 0 -49 -62 -100 -137z"/>
<path d="M550 2513 c0 -17 601 -604 700 -685 234 -191 503 -331 727 -379 244
-51 339 -61 638 -64 192 -2 229 -5 293 -24 185 -54 342 -175 455 -348 54 -83
147 -249 147 -263 0 -27 20 -1 65 87 138 268 270 413 447 492 109 49 147 54
398 56 317 3 446 17 645 66 153 39 355 120 445 179 14 9 59 39 100 66 147 97
299 232 590 523 l295 296 -440 3 -440 3 -20 -27 c-11 -15 -53 -72 -94 -127
-144 -195 -341 -365 -497 -430 -94 -40 -185 -55 -314 -51 -63 1 -126 5 -140 9
-14 3 -40 8 -59 11 -18 3 -43 8 -55 10 -177 35 -317 45 -417 31 -151 -22 -325
-126 -453 -270 l-48 -55 -66 70 c-224 238 -421 301 -757 242 -71 -12 -143 -25
-160 -28 -126 -25 -309 -26 -405 -1 -213 54 -414 215 -627 502 l-84 112 -434
1 c-239 0 -435 -3 -435 -7z"/>
<path d="M2564 558 c-2 -3 -20 -52 -39 -108 -46 -130 -117 -294 -161 -366 -19
-31 -34 -57 -34 -59 0 -1 536 -2 1190 -2 l1190 0 -20 32 c-54 88 -135 271
-186 422 -18 56 -32 83 -43 84 -89 5 -1894 2 -1897 -3z"/>
</g>
</svg>
