<svg version="1" xmlns="http://www.w3.org/2000/svg" width="933.333" height="933.333" viewBox="0 0 700.000000 700.000000"><path d="M341.8 16.7c-19.6 28.8-39.2 58.9-85.3 130.8-18.3 28.4-33.9 52.6-38.5 59.5-22.6 34.1-42.5 63.7-45.5 68-2.1 3-8.6 12.2-14.4 20.5-5.8 8.2-10.9 15.4-11.3 16-.5.5-3.3 4.4-6.4 8.5-3 4.1-6.1 8.2-6.7 9-.7.9-2.5 3.3-4.2 5.5-4.2 5.7-3.6 4.9-13.7 17.5-5 6.3-10.5 13.1-12.2 15.1-1.7 2-5.3 6.2-8.1 9.4-9.8 11.5-21.1 23.3-33.8 35.3-3.7 3.5-6.7 6.5-6.7 6.8 0 .2 19.7.2 43.7.1l43.7-.3 7.4-8c32.5-34.8 62.9-76.9 98.4-136.4 7.1-11.8 13.3-22.2 13.8-23 1.4-2.3 9.9-17 12.8-22 1.4-2.5 4.2-7.4 6.4-10.9 2.1-3.4 3.8-6.4 3.8-6.6 0-.5 28.5-48.6 32.2-54.3 1-1.5 2.1-3.4 2.6-4.2 2.2-4.3 27.3-43.1 30.5-47.3l2.3-3 4.1 6.4c2.2 3.5 8.1 12.7 13 20.4 12.8 19.9 25.9 41.5 39.9 65.6 14.1 24.4 21.6 37.4 23.8 41.4 13.6 24.1 39.1 65.8 53.6 87.5 13.7 20.6 35.5 50.3 41.5 56.6.5.6 2.8 3.3 5 6 6.2 7.5 17.6 20.2 25.1 27.9l3.2 3.2h43.6c24 0 43.6-.2 43.6-.4s-2.3-2.5-5.2-5.1c-14.4-13-38.6-39.3-51.3-55.6-1.6-2.1-3.5-4.4-4-5-5.3-5.6-30.3-39.3-55.6-75.1-2.3-3.2-14.6-21.5-27.3-40.5-20.9-31.2-26.7-39.9-44.8-68-3-4.7-8.2-12.6-11.4-17.5-3.2-5-6.1-9.5-6.4-10-.3-.6-3.1-5.1-6.4-10-3.2-5-9.3-14.3-13.5-20.8-15.4-23.7-42-64.2-42.8-65.2-.4-.6-2.4-3.5-4.3-6.5s-3.8-6-4.2-6.5c-1.4-1.8-7.5-10.8-13.5-19.7-3.2-4.8-6.1-8.8-6.5-8.8-.4 0-4.9 6.2-10 13.7zM55 448.7c0 1.7 60.1 60.4 70 68.5 23.4 19.1 50.3 33.1 72.7 37.9 24.4 5.1 33.9 6.1 63.8 6.4 19.2.2 22.9.5 29.3 2.4 18.5 5.4 34.2 17.5 45.5 34.8 5.4 8.3 14.7 24.9 14.7 26.3 0 2.7 2 .1 6.5-8.7 13.8-26.8 27-41.3 44.7-49.2 10.9-4.9 14.7-5.4 39.8-5.6 31.7-.3 44.6-1.7 64.5-6.6 15.3-3.9 35.5-12 44.5-17.9 1.4-.9 5.9-3.9 10-6.6 14.7-9.7 29.9-23.2 59-52.3l29.5-29.6-44-.3-44-.3-2 2.7c-1.1 1.5-5.3 7.2-9.4 12.7-14.4 19.5-34.1 36.5-49.7 43-9.4 4-18.5 5.5-31.4 5.1-6.3-.1-12.6-.5-14-.9-1.4-.3-4-.8-5.9-1.1-1.8-.3-4.3-.8-5.5-1-17.7-3.5-31.7-4.5-41.7-3.1-15.1 2.2-32.5 12.6-45.3 27l-4.8 5.5-6.6-7c-22.4-23.8-42.1-30.1-75.7-24.2-7.1 1.2-14.3 2.5-16 2.8-12.6 2.5-30.9 2.6-40.5.1-21.3-5.4-41.4-21.5-62.7-50.2l-8.4-11.2-43.4-.1c-23.9 0-43.5.3-43.5.7zM256.4 644.2c-.2.3-2 5.2-3.9 10.8-4.6 13-11.7 29.4-16.1 36.6-1.9 3.1-3.4 5.7-3.4 5.9 0 .1 53.6.2 119 .2h119l-2-3.2c-5.4-8.8-13.5-27.1-18.6-42.2-1.8-5.6-3.2-8.3-4.3-8.4-8.9-.5-189.4-.2-189.7.3z"/></svg>